<svg xmlns="http://www.w3.org/2000/svg" viewBox="0 0 512 512">
  <defs>
    <linearGradient id="grad" x1="0%" y1="0%" x2="100%" y2="100%">
      <stop offset="0%" style="stop-color:#8B2635"/>
      <stop offset="50%" style="stop-color:#A13547"/>
      <stop offset="100%" style="stop-color:#D4A853"/>
    </linearGradient>
  </defs>
  <rect width="512" height="512" rx="100" fill="url(#grad)"/>
  <g transform="translate(256,256)">
    <!-- Gift box -->
    <rect x="-100" y="-20" width="200" height="130" rx="10" fill="#FDF8F3"/>
    <rect x="-100" y="-60" width="200" height="50" rx="10" fill="#FDF8F3"/>
    <!-- Ribbon vertical -->
    <rect x="-15" y="-60" width="30" height="190" fill="#D4A853"/>
    <!-- Ribbon horizontal -->
    <rect x="-100" y="-45" width="200" height="30" fill="#D4A853"/>
    <!-- Bow -->
    <ellipse cx="-40" cy="-80" rx="35" ry="25" fill="#D4A853"/>
    <ellipse cx="40" cy="-80" rx="35" ry="25" fill="#D4A853"/>
    <circle cx="0" cy="-75" r="20" fill="#D4A853"/>
    <!-- Star decorations -->
    <path d="M-120,-120 L-115,-105 L-100,-100 L-115,-95 L-120,-80 L-125,-95 L-140,-100 L-125,-105 Z" fill="#FDF8F3" opacity="0.8"/>
    <path d="M120,-100 L123,-90 L133,-87 L123,-84 L120,-74 L117,-84 L107,-87 L117,-90 Z" fill="#FDF8F3" opacity="0.6"/>
    <path d="M100,80 L102,86 L108,88 L102,90 L100,96 L98,90 L92,88 L98,86 Z" fill="#FDF8F3" opacity="0.7"/>
  </g>
</svg>
